<?xml version="1.0" encoding="utf-8"?>
<!-- Generator: Adobe Illustrator 15.0.0, SVG Export Plug-In . SVG Version: 6.00 Build 0)  -->
<!DOCTYPE svg PUBLIC "-//W3C//DTD SVG 1.1//EN" "http://www.w3.org/Graphics/SVG/1.1/DTD/svg11.dtd" [
	<!ENTITY ns_flows "http://ns.adobe.com/Flows/1.0/">
	<!ENTITY ns_extend "http://ns.adobe.com/Extensibility/1.0/">
	<!ENTITY ns_ai "http://ns.adobe.com/AdobeIllustrator/10.0/">
	<!ENTITY ns_graphs "http://ns.adobe.com/Graphs/1.0/">
]>
<svg version="1.1" id="Layer_1" xmlns:x="&ns_extend;" xmlns:i="&ns_ai;" xmlns:graph="&ns_graphs;"
	 xmlns="http://www.w3.org/2000/svg" xmlns:xlink="http://www.w3.org/1999/xlink" xmlns:a="http://ns.adobe.com/AdobeSVGViewerExtensions/3.0/"
	 x="0px" y="0px" width="204px" height="139.627px" viewBox="0 0 204 139.627" style="enable-background:new 0 0 204 139.627;"
	 xml:space="preserve">
<path style="fill-rule:evenodd;clip-rule:evenodd;fill:#EDD148;stroke:#FBB040;stroke-miterlimit:10;" d="M104,5.627
	c3.566-8.157,12.44-4.505,21-3c0.016,1.651,2.773,0.56,3,2c-3.708,0.708-4.292-1.708-8-1C125.454,8.324,107.205,8.994,104,5.627z"/>
<path style="fill-rule:evenodd;clip-rule:evenodd;fill:#4869B2;" d="M76,43.627c0.055,1.278,1.282,1.385,1,3
	c-8.715-2.618-17.799-4.868-26-8c12.486-8.847,26.383-16.284,39-25c17.902,4.824,34.822,5.71,54-5c18.353,4.647,36.474,9.526,54,15
	c-6.449,8.884-17.568,13.098-24,22c-9.157,5.176-16.08,12.587-24,19c-2.825,4.412-8.864,4.628-14,2c-5.139-1.861-9.371-4.629-16-5
	c-1.987-3.013-8.013-1.987-10-5c2.465,0.132,4.818,0.151,6-1c0.333,0,0.667,0,1,0c-1.599-2.735-2.401-6.265-4-9
	c3.976-2.437,7.526-3.243,7-8c1,0,2,0,3,0c2.933-0.068,3.714-2.286,5-4c1.352,0.982,1.999,2.668,3,4c3.16,0.494,0.371-4.962,4-4
	c0.489-2.271-5.52-2.991-3-4c3.291,0.042,4.979,1.688,9,1c4.678,1.011,3.322-4.011,8-3c0.079-3.746-4.311-3.022-3-8
	c-2.667,0-5.333,0-8,0c-3.474-2.496-8.735,0.134-11,2c-7.882-0.215-5.882,9.452-15,8c0-1.333,0-2.667,0-4
	c-2.881,0.119-6.546-0.546-8,1c-0.368,1.701,0.78,1.887,2,2c0,1.333,0,2.667,0,4c-2.547-1.513-4.582-2.823-8-1c-0.667,0-1.333,0-2,0
	c-0.8,5.133,7.252,1.414,8,5c-7.405,1.86-19.658,7.511-27,3C74.922,41.188,74.881,42.188,76,43.627z M142,42.627
	c0.314-2.727-5.812-4.083-7-2C137.223,41.405,138.899,42.728,142,42.627z"/>
<path style="fill-rule:evenodd;clip-rule:evenodd;fill:#C7C3C1;" d="M106,11.627c3.667,0,7.333,0,11,0
	C115.6,13.284,107.4,13.284,106,11.627z"/>
<path style="fill-rule:evenodd;clip-rule:evenodd;fill:#C7C3C1;" d="M135,40.627c1.188-2.083,7.314-0.727,7,2
	C138.899,42.728,137.223,41.405,135,40.627z"/>
<path style="fill-rule:evenodd;clip-rule:evenodd;fill:#4869B2;" d="M82,45.627c8.113,0.779,13.227-1.44,21-1
	c-0.224,1.891,1.127,2.207,1,4c0.375,3.292,5.316,2.017,5,6c-12.052,0.378-23.419-5.239-29-8C80.776,46.403,81.973,46.6,82,45.627z"
	/>
<path style="fill-rule:evenodd;clip-rule:evenodd;fill:#A06D5C;" d="M174,68.627c1.93,1.194,5.458,3.424,3,6
	C175.402,73.225,174.445,71.182,174,68.627z"/>
<path style="fill-rule:evenodd;clip-rule:evenodd;fill:#EDD148;" d="M72,71.627c0.333,0,0.667,0,1,0c0.221,0.779,0.837,1.162,2,1
	c0.489,2.271-5.52,2.991-3,4c-0.057,0.61-0.149,1.184-1,1C65.853,76.922,73.541,75.038,72,71.627z"/>
<path style="fill-rule:evenodd;clip-rule:evenodd;fill:#FFFFFF;" d="M100,83.627c0.333,0,0.667,0,1,0c3.953,0.082-2.659,4.769-5,5
	C96.52,86.147,98.438,85.065,100,83.627z"/>
<path style="fill-rule:evenodd;clip-rule:evenodd;fill:#502F22;" d="M126,109.627c0-2,0-4,0-6
	C125.394,84.531,128.989,102.157,126,109.627z"/>
<path style="fill-rule:evenodd;clip-rule:evenodd;fill:#C7C3C1;" d="M104,11.627c-4.177,0.844-4.723-1.944-8-2
	c0.729-2.271,3.009-2.991,5-4c0.306,2.306-2.889,1.111-3,3C98.355,11.272,103.096,9.532,104,11.627z"/>
<path style="fill-rule:evenodd;clip-rule:evenodd;fill:#C7C3C1;" d="M120,11.627c3.427-1.906,8.363-2.304,12-4
	c0.302-2.635-1.385-3.282-4-3c-0.227-1.44-2.984-0.349-3-2c3.582,0.084,5.778,1.555,9,2C132.558,10.186,126.206,10.833,120,11.627z"
	/>
<path style="fill-rule:evenodd;clip-rule:evenodd;fill:#C7C3C1;" d="M174,45.627c6.432-8.902,17.551-13.116,24-22
	c-17.526-5.474-35.647-10.353-54-15c-19.178,10.71-36.098,9.824-54,5c-12.617,8.716-26.514,16.153-39,25
	c8.201,3.132,17.285,5.382,26,8c0.282-1.615-0.945-1.722-1-3c1.778,0.888,2.542,2.792,6,2c-0.027,0.973-1.224,0.776-2,1
	c5.581,2.761,16.948,8.378,29,8c0.316-3.983-4.625-2.708-5-6c2.674,2.094,7.778,3.298,5,8c0.333,0,0.667,0,1,0
	c1.987,3.013,8.013,1.987,10,5c-24.755-6.258-48.982-18.333-74-21c14.545-9.789,29.453-19.214,45-28c12.183,2.5,24.512,5.015,36,2
	c4.348-1.141,9.401-6.306,15-7c6.064-0.752,14.825,2.273,21,4c12.072,3.377,24.192,8.706,37,11
	C193.242,32.203,182.424,37.718,174,45.627z"/>
<path style="fill-rule:evenodd;clip-rule:evenodd;fill:#C7C3C1;" d="M139,74.627c0.903-1.763,2.237-3.097,4-4
	c-0.499-2.558-9.014-2.243-7-4c5.136,2.628,11.175,2.412,14-2C146.965,68.592,143.231,71.859,139,74.627z"/>
<path style="fill-rule:evenodd;clip-rule:evenodd;fill:#C7C3C1;" d="M113,46.627c1.599,2.735,2.401,6.265,4,9c-0.333,0-0.667,0-1,0
	C114.9,53.344,111.406,48.288,113,46.627z"/>
<path style="fill-rule:evenodd;clip-rule:evenodd;fill:#C7C3C1;" d="M132,30.627c-2.52,1.009,3.489,1.729,3,4
	c-3.629-0.962-0.84,4.494-4,4c-1.001-1.332-1.648-3.018-3-4c-1.286,1.714-2.067,3.932-5,4c1.626-1.708,3.124-3.542,5-5
	c2.055,0.279,1.996,2.671,3,4c2.716,0.715-0.716-4.715,2-4C129.959,33.606,129.49,28.499,132,30.627z"/>
<path style="fill-rule:evenodd;clip-rule:evenodd;fill:#C7C3C1;" d="M138,20.627c2.667,0,5.333,0,8,0c-1.311,4.978,3.079,4.254,3,8
	c-4.678-1.011-3.322,4.011-8,3c2.18-1.154,3.641-3.026,6-4C146.517,22.777,142.087,21.874,138,20.627z"/>
<path style="fill-rule:evenodd;clip-rule:evenodd;fill:#FFFFFF;" d="M127,22.627c2.265-1.866,7.526-4.496,11-2
	c4.087,1.246,8.517,2.15,9,7c-2.359,0.974-3.82,2.846-6,4c-4.021,0.688-5.709-0.958-9-1c-2.51-2.129-2.041,2.979,1,3
	c-2.716-0.715,0.716,4.715-2,4c-1.004-1.329-0.945-3.721-3-4c-1.876,1.458-3.374,3.292-5,5c-1,0-2,0-3,0
	c0.526,4.757-3.024,5.563-7,8c-1.594,1.66,1.9,6.717,3,9c-1.182,1.151-3.535,1.132-6,1c-0.333,0-0.667,0-1,0
	c2.778-4.702-2.326-5.906-5-8c0.127-1.793-1.224-2.109-1-4c-7.773-0.44-12.887,1.779-21,1c-3.458,0.792-4.222-1.112-6-2
	c-1.119-1.44-1.078-2.44,1-3c7.342,4.511,19.595-1.14,27-3c3.813-3.558-6.81-1.133-6-5c3.418-1.823,5.453-0.513,8,1
	c0-1.333,0-2.667,0-4c0-0.667,0-1.333,0-2c1.667,0,3.333,0,5,0c0,1.333,0,2.667,0,4c6.29,1.295,7.893-4.013,12-2
	c2.654-2.323-2.654-2.677,0-5C123.613,23.241,126.85,24.477,127,22.627z"/>
<path style="fill-rule:evenodd;clip-rule:evenodd;fill:#C7C3C1;" d="M127,22.627c-0.15,1.85-3.387,0.614-4,2
	c-2.654,2.323,2.654,2.677,0,5c-4.107-2.013-5.71,3.295-12,2c0-1.333,0-2.667,0-4c-1.667,0-3.333,0-5,0c0,0.667,0,1.333,0,2
	c-1.22-0.113-2.368-0.299-2-2c1.454-1.546,5.119-0.881,8-1c0,1.333,0,2.667,0,4C121.118,32.079,119.118,22.412,127,22.627z"/>
<path style="fill-rule:evenodd;clip-rule:evenodd;fill:#C7C3C1;" d="M98,32.627c-0.81,3.867,9.813,1.442,6,5
	c-0.748-3.586-8.8,0.133-8-5C96.667,32.627,97.333,32.627,98,32.627z"/>
<path style="fill-rule:evenodd;clip-rule:evenodd;fill:#C7C3C1;" d="M156,66.627c1.161-3.172,6.203-2.464,7-6
	C164.794,62.813,159.101,66.018,156,66.627z"/>
<path style="fill-rule:evenodd;clip-rule:evenodd;fill:#C7C3C1;" d="M146,78.627c1.067-0.933,0.312-3.688,3-3
	c0.163-1.162-0.221-1.779-1-2c0.241-2.578,1.721,1.373,4,0c-1.158-1.479-1.158-2.521,0-4c1.135,0.19,0.555,1.003,0,1
	c0.437,1.484,1.279-0.395,3,0c0.149,1.332-4.065,3.019-1,4c-1.568,0.104-5.814,0.819-7,4C146.667,78.627,146.333,78.627,146,78.627z
	"/>
<path style="fill-rule:evenodd;clip-rule:evenodd;fill:#C7C3C1;" d="M133,95.627c-0.111-2.555-1.833-3.5-3-5
	c0.56-2.896,1.56,1.534,3,1c0.044-1.711-0.743-2.59-2-3c-0.286-1.125,4.709,0.063,2-2c0.981-2.802,2.668,1.452,4-1
	c-0.516-3.704-1.704-2.516,2-2c-0.443-0.891-0.878-1.789-2-2c0.279-2.363,2.671,1.146,4,1c-0.565-2.081-2.857-3.232-1-5
	c4.73,3.123,3.254-2.547,7-3c-0.013,1.987-2.729,1.271-2,4c0,0.667,0,1.333,0,2c-3.942-0.275-3.058,4.275-7,4
	c-0.043,1.377,0.471,2.195,1,3c-0.581,0.452-3.615-1.857-6,1c1.378,1.289,0.989,4.344,1,7C133.667,95.627,133.333,95.627,133,95.627
	z"/>
<path style="fill-rule:evenodd;clip-rule:evenodd;fill:#C7C3C1;" d="M124,88.627c-0.184-0.851,0.39-0.943,1-1
	c-0.027-0.973-1.224-0.776-2-1c0-0.333,0-0.667,0-1c3.837-0.453,7.078,4.855,5,7c-1.228-0.554-0.729-7.781-3-4
	C124.667,88.627,124.333,88.627,124,88.627z"/>
<path style="fill-rule:evenodd;clip-rule:evenodd;fill:#C7C3C1;" d="M14,61.627c2.156-3.51,7.673-3.661,10-7
	C24.699,57.029,17.407,60.007,14,61.627z"/>
<path style="fill-rule:evenodd;clip-rule:evenodd;fill:#C7C3C1;" d="M137,115.627c0.796-3.537,5.004-3.663,6-7
	c-2.148,1.89-8.309,4.974-7,7c-9.458,8.542-22.366,13.634-30,24c-12.455-3.879-24.292-8.375-35-14c11.902,4.098,22.823,9.178,35,13
	c-0.027-0.973-1.224-0.776-2-1c0.162-1.172,1.823-0.844,3-1c-6.295-5.705-15.952-8.048-25-11c0.027,0.973,1.224,0.776,2,1
	c-4.451,1.021-11.125-7.693-18-6c-18.047-10.953-45.186-12.814-62-25c-1.086,0.247-0.678,1.988-2,2c11.037,7.63,27.546,9.787,39,17
	c-13.998-4.669-26.683-10.65-41-15c0.543-3.123,2.383-4.951,5-6c0.797-13.001-5.076-24.545,4-30c0.333,0,0.667,0,1,0
	c-0.054,2.358-5.651,4.243-3,6c1.419-0.086,2.832-0.165,3,1c-1.419-0.086-2.832-0.165-3,1c17.089,5.128,40.941,14.591,55,20
	c2.018,0.776,3.774-2.618,2,1c14.65,1.155,25.726,8.179,40,12c1.58-3.913-2.596-2.07-3-4c0.667,0,1.333,0,2,0c0.333,0,0.667,0,1,0
	c1.479,1.158,2.521,1.158,4,0c-0.744,11.12,0.692,24.933,1,32c6.511-2.446,12.543-12.769,15-13c-0.663-1.619-2.585-10.092,1-7
	c-2.376-4.68-1.339-16.167,0-23c1.621,2.61-1.898,10.486,1,14c0,2,0,4,0,6c0.304,4.637-0.01,8.657-2,11c1.183,2.693,5.214-0.004,7,0
	c-6.114-0.658-1.63-18.485-3-27c1.987,1.666,1.271-0.091,4,0c-1.031,3.154,0.234,5.556-3,8c2.873-0.127,4.749-1.251,4-5
	c1.783,3.97,1.194,13.074,1,16c2.092-1.618,8.329-4.279,6-7c0.437-1.484,1.279,0.395,3,0c0.163-1.162-0.221-1.779-1-2
	c5.354-0.887,13.266-8.087,14-14c1.086,0.247,0.679,1.988,2,2c2.435-1.881-1.959-3.632,3-2c-0.037-4.445,1.079-3.293,6-6
	c-1.666-1.987,0.091-1.271,0-4c-0.807,0.86-2.739,0.594-3,2c-0.184,0.851,0.39,0.943,1,1c-4.769,0.686,2.003-6.243,5-7
	c0.127-1.794-1.224-2.109-1-4c4.826,2.007-0.391,6.336-2,8c3.511,0.178,3.289-3.378,6-4c-0.138-1.862-0.658-3.342-2-4
	c0.677-2.323,3.323-2.677,4-5c1.229,1.771,1.948,4.052,4,5c1.654-1.067-2.555-3.033,0-6c1.958-2.604,0.309,2.853,0,4
	c6.83-2.044,11.885-13.059,21-16c1.148-5.815-1.185-8.149-7-7c-0.465,3.202-5.188,2.145-4,7c-3.736-1.069-2.851,2.483-6,2
	c0.125,2.767,1.908,3.433-1,2c-0.409,2.409,1.826,2.174,1,5c-1.342-0.202-1.862-4.153-2,0c-2.21-3.255,2.113-8.52,5-10
	c-2.171-3.682-2.226,2.993-5,2c2.725-4.94,0.564-0.885-2-3c-0.42,1.187-1.52,4.281-4,6c0.903,1.125,2.237-0.063,4,2
	c-1.306-2.358-0.812-7.3,2-5c0.044,2.558-0.743,1.219-2,1c0.109,2.488,1.874,3.096,0,5c-3.586-1.935-3.664,0.385-7,1
	c2.73-2.404-0.153-5.962,5-7c-7.291-0.975-3.036,9.352-9,12c-2.209-0.709,5.649-5.544,0-7c0.184,0.851-0.39,0.943-1,1
	c0.649,1.017,2.299,1.034,2,3c-2.58-1.341-5.684,3.903-8,6c0.274-3.393-1.834-2.598-5,0c1.779-4.808,11.449-5.061,9-11
	c5.878,0.396,3.585-4.28,12-6c-2.228-4.03,4.14-2.418,7-6c-0.279-2.363-2.671,1.146-4,1c7.486-4.73,12.734-14.258,24-18
	c-1.664,8.691-1.185,17.688-2,25c-9.269,5.782-15.854,19.411-26,21c0.529,0.805,1.043,1.623,1,3c-0.757,0.407-2.286-0.527-2-1
	C167.593,89.879,148.729,103.485,137,115.627z M177,74.627c2.458-2.576-1.07-4.806-3-6C174.445,71.182,175.402,73.225,177,74.627z
	 M190,43.627c5.612-0.077,10.513-6.124,10-9C196.897,37.858,192.759,40.052,190,43.627z M129,102.627c0.277,6.333,1.547,10.137,0,16
	c2.892-0.441,4.559-2.108,5-5c-4.213,1.371,1.622-6.262-3-3c2.418-2.402-2.428-2.647-1-7c1.086-0.239,2.401-1.646,1-2
	C130.779,102.407,130.162,102.79,129,102.627z"/>
<path style="fill-rule:evenodd;clip-rule:evenodd;fill:#A06D5C;" d="M156,69.627c3.166-2.598,5.274-3.393,5,0
	c2.316-2.097,5.42-7.341,8-6c0.299-1.966-1.351-1.983-2-3c0.61-0.057,1.184-0.149,1-1c5.649,1.456-2.209,6.291,0,7
	c5.964-2.648,1.709-12.975,9-12c-5.153,1.038-2.27,4.596-5,7c3.336-0.615,3.414-2.935,7-1c1.874-1.904,0.109-2.512,0-5
	c1.257,0.219,2.044,1.558,2-1c-2.812-2.3-3.306,2.642-2,5c-1.763-2.063-3.097-0.875-4-2c2.48-1.719,3.58-4.813,4-6
	c2.564,2.115,4.725-1.94,2,3c2.774,0.993,2.829-5.682,5-2c-2.887,1.48-7.21,6.745-5,10c0.138-4.153,0.658-0.202,2,0
	c0.826-2.826-1.409-2.591-1-5c2.908,1.433,1.125,0.767,1-2c3.149,0.483,2.264-3.069,6-2c-1.188-4.855,3.535-3.798,4-7
	c5.815-1.149,8.148,1.185,7,7c-9.115,2.941-14.17,13.956-21,16c0.309-1.147,1.958-6.604,0-4c-2.555,2.967,1.654,4.933,0,6
	c-2.052-0.948-2.771-3.229-4-5c-0.677,2.323-3.323,2.677-4,5c1.342,0.658,1.862,2.138,2,4c-2.711,0.622-2.489,4.178-6,4
	c1.609-1.664,6.826-5.993,2-8c-0.224,1.891,1.127,2.206,1,4c-2.997,0.757-9.769,7.686-5,7c-0.61-0.057-1.184-0.149-1-1
	c0.261-1.406,2.193-1.14,3-2c0.091,2.729-1.666,2.013,0,4c-4.921,2.707-6.037,1.555-6,6c-4.959-1.632-0.565,0.119-3,2
	c-1.321-0.012-0.914-1.753-2-2c-0.734,5.913-8.646,13.113-14,14c0.779,0.221,1.163,0.838,1,2c-1.721,0.395-2.563-1.484-3,0
	c2.329,2.721-3.908,5.382-6,7c0.194-2.926,0.783-12.03-1-16c0-0.333,0-0.667,0-1c0.333,0,0.667,0,1,0c-0.011-2.656,0.378-5.711-1-7
	c2.385-2.857,5.419-0.548,6-1c-0.529-0.805-1.043-1.623-1-3c3.942,0.275,3.058-4.275,7-4c0-0.667,0-1.333,0-2c0.333,0,0.667,0,1,0
	s0.667,0,1,0c1.186-3.181,5.432-3.896,7-4c-3.065-0.981,1.149-2.668,1-4C155.851,70.811,155.943,70.237,156,69.627z M175,61.627
	c-1.935,3.093-9.682,5.616-8,9c-0.003-0.555,0.81-1.135,1,0c-0.41,1.257-1.29,2.044-3,2c0.225-1.891-1.127-2.207-1-4
	c1.625,0.299,2.697-1.35,1-2c-3.05,2.191-1.304,5.918,1,8c2.631-5.818,12.598-8.706,12-12c-1.724-1.091-5.276,5.565-7,4
	C171.931,65.239,178.238,60.776,175,61.627z M161,81.627c1.517-3.816,6.62-4.047,8-8C165.879,75.204,160.167,79.42,161,81.627z
	 M154,80.627c1.736,2.483,2.585,1.635,1-1c2.48-1.156,3.562-2.74,5,0c-0.467-2.799,1.643-9.36-2-9c1.28,4.424-2.342,4.357,2,4
	C158.452,77.08,155.235,77.863,154,80.627z"/>
<path style="fill-rule:evenodd;clip-rule:evenodd;fill:#A06D5C;" d="M200,34.627c0.513,2.876-4.388,8.923-10,9
	C192.759,40.052,196.897,37.858,200,34.627z"/>
<path style="fill-rule:evenodd;clip-rule:evenodd;fill:#ED1C24;" d="M46,40.627c25.018,2.667,49.245,14.742,74,21
	c6.629,0.371,10.861,3.139,16,5c-2.014,1.757,6.501,1.442,7,4c-1.763,0.903-3.097,2.237-4,4c-2.358,0.309-1.86,3.473-5,3
	c-30.418-11.582-62.86-21.14-94-32C41.002,42.963,44.036,42.331,46,40.627z M47,42.627c1.944-1.411,7.79,0.276,5,4
	c2.775-0.225,2.829-3.171,5-4C53.329,42.289,45.842,39.25,47,42.627z M60,44.627c-4.722-1.389-3.658,3.009-6,4
	c6.318-0.654,11.844,5.528,18,4c-3.299-1.494,3.345-1.178,2-4C70.611,47.739,59.025,48.334,60,44.627z M77,54.627
	c-1.337-0.109-5.513-1.874-3,0c1.182,1.151,3.535,1.132,6,1c0.157-1.177-0.172-2.838,1-3c0.61-0.057,1.184-0.149,1-1
	c-2.767,0.125-3.433,1.909-2-1C75.011,49.944,74.355,52.426,77,54.627z M93,55.627c-2.576-2.458-4.806,1.07-6,3
	c2.358,2.447,1.86-1.493,5-1c-1.307,3.089,2.837,5.673,4,3c-4.341-3.135,5.07-0.835,5-3C97.919,55.327,90.527,59.298,93,55.627z
	 M101,62.627c1.987,0.013,1.271,2.729,4,2c0.297-2.036,2.003-2.664,3-4c-3.736,1.069-2.851-2.483-6-2c0.286,1.763-4.709,3.097-2,4
	C100.333,62.627,100.667,62.627,101,62.627z M82,57.627c2.926-0.74,4.915-2.418,7-4C84.94,53.234,82.032,53.993,82,57.627z
	 M114,62.627c-3.469-0.802-3.844,1.489-7,1c-0.03,3.363,4.63,2.037,6,4C112.174,64.801,114.409,65.037,114,62.627z M119,69.627
	c1.826,0.044,6.399-2.111,4-3c-1.837,3.336-5.054-6.141-7,0C118.688,65.938,117.933,68.695,119,69.627z"/>
<path style="fill-rule:evenodd;clip-rule:evenodd;fill:#502F22;" d="M57,42.627c-2.171,0.829-2.225,3.775-5,4
	c2.79-3.724-3.056-5.411-5-4C45.842,39.25,53.329,42.289,57,42.627z"/>
<path style="fill-rule:evenodd;clip-rule:evenodd;fill:#C7C3C1;" d="M80,50.627c-1.433,2.909-0.767,1.125,2,1
	c0.184,0.851-0.39,0.943-1,1c-1.172,0.162-0.843,1.823-1,3c-2.465,0.132-4.818,0.151-6-1c-2.513-1.874,1.663-0.109,3,0
	C74.355,52.426,75.011,49.944,80,50.627z"/>
<path style="fill-rule:evenodd;clip-rule:evenodd;fill:#C7C3C1;" d="M101,57.627c0.07,2.165-9.341-0.135-5,3
	c-1.163,2.673-5.307,0.089-4-3c-3.14-0.493-2.642,3.447-5,1c1.194-1.93,3.424-5.458,6-3C90.527,59.298,97.919,55.327,101,57.627z"/>
<path style="fill-rule:evenodd;clip-rule:evenodd;fill:#C7C3C1;" d="M100,62.627c-2.709-0.903,2.286-2.237,2-4
	c3.149-0.483,2.264,3.069,6,2c-0.997,1.336-2.703,1.964-3,4c-2.729,0.729-2.013-1.987-4-2c0.977-3.314,1.977,1.117,3,1
	c2.995-0.658-0.956-2.138,0-4C101.497,59.458,100.87,61.164,100,62.627z"/>
<path style="fill-rule:evenodd;clip-rule:evenodd;fill:#C7C3C1;" d="M74,48.627c1.345,2.822-5.299,2.506-2,4
	c-6.156,1.528-11.682-4.654-18-4c2.342-0.991,1.278-5.389,6-4C59.025,48.334,70.611,47.739,74,48.627z"/>
<path style="fill-rule:evenodd;clip-rule:evenodd;fill:#FFFFFF;" d="M89,53.627c-2.085,1.582-4.074,3.26-7,4
	C82.032,53.993,84.94,53.234,89,53.627z"/>
<path style="fill-rule:evenodd;clip-rule:evenodd;fill:#C7C3C1;" d="M26,61.627c-0.558,2.039-3.009,1.961-1,4
	c3.236,1.236,0.764-3.236,4-2c0,0.333,0,0.667,0,1c-2.156,3.719-4.925,0.64-7-1C22.658,62.285,24.138,61.765,26,61.627z"/>
<path style="fill-rule:evenodd;clip-rule:evenodd;fill:#A06D5C;" d="M29,64.627c3.601,0.267,4.819-1.847,8-2
	c0.423-2.09-0.686-2.648-1-4c2.036,0.297,2.664,2.003,4,3c-1.5,1.167-2.445,2.888-5,3c0.847,1.486,3.22,1.447,5,2
	c-2.275,1.725-5.861,2.139-10,2c0.65,1.017,2.299,1.034,2,3c3.708,0.708,4.292-1.708,8-1c0.333,0,0.667,0,1,0
	c0.532,3.42,4.818,1.531,7,1c0.521,1.479,1.479,2.521,2,4c3.986-0.319,7.388-0.055,9,2c0.333,0,0.667,0,1,0c0.667,0,1.333,0,2,0
	c1.404,4.598,7.311,0.531,9,6c4.354-0.979,5.816-4.851,10-6c0.127-1.794-1.224-2.109-1-4c3.078,0.798,3.203,2.008,2,5
	c1.793,0.127,2.109-1.225,4-1c0,0.333,0,0.667,0,1c-3.073,0.261-4.497,2.17-7,3c-3.542,5.587,5.805,2.344,8,4c0.333,0,0.667,0,1,0
	c-0.432,5.766,10.882-0.216,9,7c3.929-0.404,4.271-4.396,8-5c0.319-2.319-0.161-3.839-1-5c-1.419-0.086-2.832-0.165-3,1
	c-0.333,0-0.667,0-1,0c-1,0-2,0-3,0c0.292-0.613,2.487-3.85,0-4c-1.314-1.283-3.686-1.283-5,0c-1.987-0.013-1.271-2.729-4-2
	c0.111-2.448,3.306-0.212,3,1c1.862-0.138,3.342-0.658,4-2c0.614,1.387,3.85,0.15,4,2c-2.729,0.903,3.042,2.237,0,4
	c1.743-0.924,5.367,0.034,5-3c0.614,1.387,3.85,0.15,4,2c-3.214,0.036-0.446,2.844-2,6c2.308,1.358,4.848,2.485,4,7
	c-2.485,1.848-5.643,3.023-7,6c-0.667,0-1.333,0-2,0c-1.824-1.509-5.605-1.062-7-3c3.66-1.817,2.114-3.637,2-8
	c-2.939,1.395-3.987,4.68-8,5c-2.315-2.223,0.339-3.899,0-7c-2.547,1.12-4.582,2.752-8,3c0.127-1.794-1.224-2.109-1-4
	c-3.738,0.322-5.727,1.678-7,2c-0.556-2.27-1.335-3.332-4-7c-2.259,0.56,1.212,1.56-1,3c-2.182,0.638-3.182-2.834-3,1
	c-0.851,0.184-0.943-0.39-1-1c-0.667,0-1.333,0-2,0c-0.729-2.729,1.987-2.013,2-4c-1.704-2.909-5.017,0.889-6,2
	c-2.729,0.729-2.013-1.987-4-2c0.111-1.889,3.306-0.694,3-3c-2.091-2.348-5.582,2.361-8,3c0.846-3.438-1.621-1.078,1-5
	c-1.771-3.282-4.052,1.166-5,2c-3.033,0.033-2.492-3.509-3-6c-2.322,0.678-3.446,2.554-5,4c-3.715,0.382-2.614-4.052-7-3
	c4.728,2.622-2.848,0.958,0,4c-1.78-0.553-4.153-0.514-5-2c3.327,0.688,1.611-2.067,1-3c-1.753,0.914-4.99,0.344-6,2
	c-0.851,0.184-0.943-0.39-1-1c2.79-0.877,4.939-2.394,8-3c-1.013-6.869-11.15,1.508-12-5c-2.153,3.71-5.449,2.401-7,5
	c-2.651-1.757,2.946-3.642,3-6c2.729,0.729,2.013-1.987,4-2c3.407-1.62,10.699-4.598,10-7c-0.451-1.633,5.451-1.633,5,0
	c-1,0-2,0-3,0c-0.207,2.874,0.253,5.08,2,6c-0.027,0.973-1.224,0.776-2,1c-1.862,0.138-3.342,0.658-4,2
	C24.075,65.267,26.844,68.347,29,64.627z M97,95.627c3.482-0.482,3.494,2.507,5,4c0.221-0.779,0.837-1.162,2-1
	c-1.425-6.135,2.805-1.946,4-4c-4.73-0.127,2.205-1.251,0-5C102.134,89.428,100.269,93.229,97,95.627z"/>
<path style="fill-rule:evenodd;clip-rule:evenodd;fill:#C7C3C1;" d="M40,70.627c-3.708-0.708-4.292,1.708-8,1
	c0.299-1.966-1.35-1.983-2-3c4.139,0.139,7.725-0.275,10-2c2.465,0.132,4.818,0.151,6-1C45.297,68.591,40.252,67.213,40,70.627z"/>
<path style="fill-rule:evenodd;clip-rule:evenodd;fill:#A06D5C;" d="M73,71.627c3.15-0.483,2.264,3.069,6,2
	c-0.226,1.44-2.984,0.349-3,2c-2.09-0.424-2.648,0.686-4,1c-2.52-1.009,3.489-1.729,3-4C73.837,72.79,73.221,72.407,73,71.627z"/>
<path style="fill-rule:evenodd;clip-rule:evenodd;fill:#A06D5C;" d="M63,69.627c0.186-1.481,2.417-0.917,4-1
	c0.873,1.461,0.794,3.872,4,3c-0.003-0.556,0.81-1.135,1,0c-0.804,0.529-1.624,1.043-3,1c-1.163-0.162-1.779,0.221-2,1
	c-1.172-0.161-0.843-1.823-1-3c0-0.333,0-0.667,0-1C65,69.627,64,69.627,63,69.627z"/>
<path style="fill-rule:evenodd;clip-rule:evenodd;fill:#FFFFFF;" d="M28,60.627c3.601,0.267,4.819-1.847,8-2
	c0.314,1.352,1.423,1.91,1,4c-3.181,0.153-4.399,2.267-8,2c0-0.333,0-0.667,0-1c-3.236-1.236-0.764,3.236-4,2
	c-2.009-2.039,0.442-1.961,1-4C26.776,61.403,27.973,61.6,28,60.627z"/>
<path style="fill-rule:evenodd;clip-rule:evenodd;fill:#FFFFFF;" d="M100,62.627c0.87-1.464,1.497-3.169,4-3
	c-0.956,1.862,2.995,3.342,0,4c-1.023,0.117-2.023-4.314-3-1C100.667,62.627,100.333,62.627,100,62.627z"/>
<path style="fill-rule:evenodd;clip-rule:evenodd;fill:#C7C3C1;" d="M171,66.627c1.724,1.565,5.276-5.091,7-4
	c0.598,3.294-9.369,6.182-12,12c-2.304-2.082-4.05-5.809-1-8c1.697,0.65,0.625,2.299-1,2c-0.127,1.793,1.225,2.109,1,4
	c1.71,0.044,2.59-0.743,3-2c-0.19-1.135-1.003-0.555-1,0c-1.682-3.384,6.065-5.907,8-9C178.238,60.776,171.931,65.239,171,66.627z"
	/>
<path style="fill-rule:evenodd;clip-rule:evenodd;fill:#C7C3C1;" d="M49,64.627c0.168-1.165,1.581-1.086,3-1c0,1.333,0,2.667,0,4
	c3.469,0.802,3.844-1.489,7-1c-0.224,1.891,1.127,2.206,1,4c1.278-0.055,1.385-1.282,3-1c1,0,2,0,3,0c0,0.333,0,0.667,0,1
	c-3.528,0.139-4.472,2.861-8,3c0.777,0.89,1.075,2.258,1,4c-1.612-2.055-5.014-2.319-9-2c-0.521-1.479-1.479-2.521-2-4
	c-2.182,0.531-6.468,2.42-7-1c0.81,0.19,0.997,1.003,2,1c1.135-0.19,0.555-1.003,0-1c0.733-1.781,1.818-0.144,3,0
	c2.895-2.087,2.545-4.441,5-5C50.973,64.655,49.776,64.852,49,64.627z M54,69.627c2.052,1.146,4.767-1.57,2-2
	c-1.682,1.985-5.739,1.594-7,4c1.165,0.168,1.086,1.581,1,3c1.667,0,3.333,0,5,0c-0.422-3.422,2.995-3.005,4-5
	C57.22,69.03,54.847,72.558,54,69.627z"/>
<path style="fill-rule:evenodd;clip-rule:evenodd;fill:#C7C3C1;" d="M116,66.627c1.946-6.141,5.163,3.336,7,0
	c2.399,0.889-2.174,3.044-4,3C117.933,68.695,118.688,65.938,116,66.627z"/>
<path style="fill-rule:evenodd;clip-rule:evenodd;fill:#A06D5C;" d="M128,93.627c1.37,8.515-3.114,26.342,3,27
	c-1.786-0.004-5.817,2.693-7,0c1.99-2.343,2.304-6.363,2-11c2.989-7.471-0.606-25.097,0-6c-2.898-3.514,0.621-11.39-1-14
	c0-0.333,0-0.667,0-1c2.271-3.781,1.772,3.446,3,4C128,92.96,128,93.294,128,93.627z"/>
<path style="fill-rule:evenodd;clip-rule:evenodd;fill:#FFFFFF;" d="M59,69.627c-1.005,1.995-4.422,1.578-4,5c-1.667,0-3.333,0-5,0
	c0.086-1.419,0.165-2.832-1-3c1.261-2.406,5.318-2.015,7-4c2.767,0.43,0.052,3.146-2,2C54.847,72.558,57.22,69.03,59,69.627z"/>
<path style="fill-rule:evenodd;clip-rule:evenodd;fill:#C7C3C1;" d="M169,73.627c-1.38,3.953-6.483,4.184-8,8
	C160.167,79.42,165.879,75.204,169,73.627z"/>
<path style="fill-rule:evenodd;clip-rule:evenodd;fill:#C7C3C1;" d="M160,74.627c-4.342,0.357-0.72,0.424-2-4
	c3.643-0.36,1.533,6.201,2,9c-1.438-2.74-2.52-1.156-5,0c1.585,2.635,0.736,3.483-1,1C155.235,77.863,158.452,77.08,160,74.627z"/>
<path style="fill-rule:evenodd;clip-rule:evenodd;fill:#FFFFFF;" d="M29,76.627c21.101,7.566,42.15,15.183,65,21
	c1.395,1.938,5.176,1.491,7,3c0.404,1.93,4.58,0.087,3,4c-14.274-3.821-25.35-10.845-40-12c1.774-3.618,0.018-0.224-2-1
	c-14.059-5.409-37.911-14.872-55-20c0.168-1.165,1.581-1.086,3-1c3.181,0.152,4.399,2.268,8,2c0.057,0.61,0.149,1.184,1,1
	c2.409-0.409,2.174,1.826,5,1C24.847,76.114,27.22,76.075,29,76.627z"/>
<path style="fill-rule:evenodd;clip-rule:evenodd;fill:#FFFFFF;" d="M60,77.627c1.915-1.752,5.213-2.12,8-3
	c-0.027,0.973-1.224,0.776-2,1c-0.184,0.851,0.39,0.943,1,1c-0.247,1.086-1.988,0.679-2,2c-1.135-0.19-0.555-1.003,0-1
	c-0.733-1.78-1.818-0.145-3,0C61.333,77.627,60.667,77.627,60,77.627z"/>
<path style="fill-rule:evenodd;clip-rule:evenodd;fill:#502F22;" d="M24,74.627c-2.826,0.826-2.591-1.409-5-1
	c1.01-1.656,4.247-1.086,6-2C25.611,72.56,27.327,75.316,24,74.627z"/>
<path style="fill-rule:evenodd;clip-rule:evenodd;fill:#502F22;" d="M29,76.627c-2.848-3.042,4.728-1.378,0-4
	c4.386-1.052,3.285,3.382,7,3c1.554-1.446,2.678-3.322,5-4c0.508,2.491-0.033,6.033,3,6c0.948-0.834,3.229-5.282,5-2
	c-2.621,3.922-0.154,1.562-1,5c2.418-0.639,5.909-5.348,8-3c0.306,2.306-2.889,1.111-3,3c1.987,0.013,1.271,2.729,4,2
	c0.983-1.111,4.296-4.909,6-2c-0.013,1.987-2.729,1.271-2,4c0.667,0,1.333,0,2,0c0.057,0.61,0.149,1.184,1,1
	c-0.182-3.834,0.818-0.362,3-1c2.212-1.44-1.259-2.44,1-3c2.665,3.668,3.444,4.73,4,7c1.273-0.322,3.262-1.678,7-2
	c-0.224,1.891,1.127,2.206,1,4c3.418-0.248,5.453-1.88,8-3c0.339,3.101-2.315,4.777,0,7c4.013-0.32,5.061-3.605,8-5
	c0.114,4.363,1.66,6.183-2,8C71.15,91.81,50.101,84.194,29,76.627z"/>
<path style="fill-rule:evenodd;clip-rule:evenodd;fill:#FFFFFF;" d="M79,81.627c2.503-0.83,3.927-2.739,7-3c0.667,0,1.333,0,2,0
	c1.402,5.424,1.323,0.165,4,1c1.314-1.283,3.686-1.283,5,0c-0.275,4.392-6.546,2.787-7,7c-0.81-0.19-0.997-1.003-2-1
	c-0.333,0-0.667,0-1,0c-0.962-4.582-5.823,0.95-8-2C79,82.96,79,82.294,79,81.627z"/>
<path style="fill-rule:evenodd;clip-rule:evenodd;fill:#C7C3C1;" d="M79,81.627c0,0.667,0,1.333,0,2c2.177,2.95,7.038-2.582,8,2
	C84.805,83.971,75.458,87.214,79,81.627z"/>
<path style="fill-rule:evenodd;clip-rule:evenodd;fill:#C7C3C1;" d="M86,78.627c0-0.333,0-0.667,0-1c0.667,0,1.333,0,2,0
	c2.729-0.729,2.013,1.987,4,2c-2.677-0.835-2.598,4.424-4-1C87.333,78.627,86.667,78.627,86,78.627z"/>
<path style="fill-rule:evenodd;clip-rule:evenodd;fill:#C7C3C1;" d="M97,79.627c2.487,0.15,0.292,3.387,0,4c1,0,2,0,3,0
	c-1.562,1.438-3.48,2.52-4,5c2.341-0.231,8.953-4.918,5-5c0.168-1.165,1.581-1.086,3-1c0.839,1.161,1.319,2.681,1,5
	c-3.729,0.604-4.071,4.596-8,5c1.882-7.216-9.432-1.234-9-7c1.003-0.003,1.19,0.81,2,1C90.454,82.415,96.725,84.019,97,79.627z"/>
<path style="fill-rule:evenodd;clip-rule:evenodd;fill:#A06D5C;" d="M104,100.627c3.492-2.174,5.84-5.493,10-7
	c-0.247,1.086-1.988,0.679-2,2c-3.031-0.031-0.969,5.031-4,5C106.521,101.786,105.479,101.786,104,100.627z"/>
<path style="fill-rule:evenodd;clip-rule:evenodd;fill:#502F22;" d="M108,81.627c6.357-0.024,8.817,3.85,15,4c0,0.333,0,0.667,0,1
	c0.776,0.224,1.973,0.027,2,1c-0.61,0.057-1.184,0.149-1,1c-1.313,0.354-1.573,1.761-3,2c-2.592,0.422-4.616,0.401-7,3
	c-4.16,1.507-6.508,4.826-10,7c-0.333,0-0.667,0-1,0c1.357-2.977,4.515-4.152,7-6c0.848-4.515-1.692-5.642-4-7
	C107.554,84.471,104.786,81.664,108,81.627z"/>
<path style="fill-rule:evenodd;clip-rule:evenodd;fill:#FFFFFF;" d="M108,100.627c3.031,0.031,0.969-5.031,4-5
	c3.827-3.016,6.525-0.944,9-5c1.427-0.239,1.687-1.646,3-2c0.333,0,0.667,0,1,0c0,0.333,0,0.667,0,1c-1.339,6.833-2.376,18.32,0,23
	c-3.585-3.092-1.663,5.381-1,7c-2.457,0.231-8.489,10.554-15,13C108.692,125.56,107.256,111.748,108,100.627z"/>
<path style="fill-rule:evenodd;clip-rule:evenodd;fill:#C7C3C1;" d="M112,95.627c0.012-1.321,1.753-0.914,2-2
	c2.384-2.599,4.408-2.578,7-3C118.525,94.683,115.827,92.612,112,95.627z"/>
<path style="fill-rule:evenodd;clip-rule:evenodd;fill:#C7C3C1;" d="M108,89.627c2.205,3.749-4.73,4.873,0,5
	c-1.195,2.054-5.425-2.135-4,4c-1.163-0.162-1.779,0.221-2,1c-1.506-1.493-1.518-4.482-5-4
	C100.269,93.229,102.134,89.428,108,89.627z"/>
<path style="fill-rule:evenodd;clip-rule:evenodd;fill:#FFFFFF;" d="M131,101.627c1.401,0.354,0.086,1.761-1,2
	c-1.428,4.353,3.418,4.598,1,7c4.622-3.262-1.213,4.371,3,3c-0.441,2.892-2.108,4.559-5,5c1.547-5.863,0.277-9.667,0-16
	C130.162,102.79,130.779,102.407,131,101.627z"/>
<path style="fill-rule:evenodd;clip-rule:evenodd;fill:#A06D5C;" d="M41,114.627c-11.454-7.213-27.963-9.37-39-17
	c1.322-0.012,0.914-1.753,2-2c16.814,12.186,43.953,14.047,62,25c6.875-1.693,13.549,7.021,18,6c-0.776-0.224-1.973-0.027-2-1
	c9.048,2.952,18.705,5.295,25,11c-1.177,0.156-2.838-0.172-3,1c0.776,0.224,1.973,0.027,2,1c-12.177-3.822-23.098-8.902-35-13
	C60.958,122.002,52.119,117.175,41,114.627z"/>
<path style="fill-rule:evenodd;clip-rule:evenodd;fill:#A06D5C;" d="M136,115.627c-1.309-2.026,4.852-5.11,7-7
	c-0.996,3.337-5.204,3.463-6,7C136.667,115.627,136.333,115.627,136,115.627z"/>
<path style="fill-rule:evenodd;clip-rule:evenodd;fill:#ED1C24;" d="M128,4.627c2.615-0.282,4.302,0.365,4,3
	c-3.637,1.696-8.573,2.094-12,4c-1,0-2,0-3,0c-3.667,0-7.333,0-11,0c-0.667,0-1.333,0-2,0c-0.904-2.096-5.645-0.355-6-3
	c0.111-1.889,3.306-0.694,3-3c1,0,2,0,3,0c3.205,3.367,21.454,2.696,16-2C123.708,2.919,124.292,5.336,128,4.627z"/>
<path style="fill-rule:evenodd;clip-rule:evenodd;fill:#502F22;" d="M29,54.627c22.968,6.366,43.9,14.767,66,22
	c-0.658,1.342-2.138,1.862-4,2c0.306-1.212-2.889-3.448-3-1c-0.667,0-1.333,0-2,0c-1.891-0.225-2.207,1.127-4,1
	c1.203-2.992,1.078-4.202-2-5c-0.333,0-0.667,0-1,0c-3.736,1.069-2.85-2.483-6-2c-0.333,0-0.667,0-1,0c-0.19-1.135-1.003-0.556-1,0
	c-3.206,0.872-3.127-1.539-4-3c-1.583,0.083-3.814-0.481-4,1c-1.615-0.282-1.722,0.945-3,1c0.127-1.794-1.224-2.109-1-4
	c-3.156-0.489-3.531,1.802-7,1c0-1.333,0-2.667,0-4c-1.419-0.086-2.832-0.165-3,1c-1.615-0.282-1.722,0.945-3,1
	c-1.182,1.151-3.535,1.132-6,1c-1.78-0.553-4.153-0.514-5-2c2.555-0.112,3.5-1.833,5-3c-1.336-0.997-1.964-2.703-4-3
	c-3.181,0.153-4.399,2.267-8,2c-1.747-0.92-2.207-3.126-2-6C27,54.627,28,54.627,29,54.627z"/>
<path style="fill-rule:evenodd;clip-rule:evenodd;fill:#C7C3C1;" d="M113,67.627c-1.37-1.963-6.03-0.637-6-4
	c3.156,0.489,3.531-1.802,7-1C114.409,65.037,112.174,64.801,113,67.627z"/>
<path style="fill-rule:evenodd;clip-rule:evenodd;fill:#502F22;" d="M18,72.627c-3.601,0.268-4.819-1.848-8-2
	c-0.168-1.165-1.581-1.086-3-1c1.551-2.599,4.847-1.29,7-5c0.85,6.508,10.987-1.869,12,5C22.939,70.234,20.79,71.75,18,72.627z"/>
<path style="fill-rule:evenodd;clip-rule:evenodd;fill:#C7C3C1;" d="M69,72.627c1.376,0.043,2.196-0.471,3-1
	c1.541,3.41-6.147,5.295-1,6c0.368,1.701-0.78,1.887-2,2c1.572,4.271,11.925-1.949,7-4c0.016-1.651,2.774-0.56,3-2
	c0.333,0,0.667,0,1,0c-0.224,1.891,1.127,2.206,1,4c-4.184,1.149-5.646,5.021-10,6c-1.689-5.469-7.596-1.402-9-6
	c1.182-0.145,2.267-1.78,3,0c-0.555-0.003-1.135,0.81,0,1c0.012-1.321,1.753-0.914,2-2c-0.61-0.057-1.184-0.149-1-1
	c0.776-0.224,1.973-0.027,2-1C68.973,74.6,68.776,73.404,69,72.627z"/>
<path style="fill-rule:evenodd;clip-rule:evenodd;fill:#502F22;" d="M99,78.627c2.826-0.826,2.591,1.409,5,1
	c0.367,3.034-3.257,2.076-5,3C102.042,80.865,96.271,79.531,99,78.627z"/>
<path style="fill-rule:evenodd;clip-rule:evenodd;fill:#FFFFFF;" d="M46,65.627c1.278-0.055,1.385-1.282,3-1
	c0.776,0.224,1.973,0.027,2,1c-2.455,0.559-2.105,2.913-5,5c-1.182-0.144-2.267-1.781-3,0c0.555-0.003,1.135,0.81,0,1
	c-1.003,0.003-1.19-0.81-2-1c-0.333,0-0.667,0-1,0C40.252,67.213,45.297,68.591,46,65.627z"/>
<path style="fill-rule:evenodd;clip-rule:evenodd;fill:#FFFFFF;" d="M72,76.627c1.352-0.314,1.91-1.424,4-1
	c4.925,2.051-5.428,8.271-7,4c1.22-0.113,2.368-0.299,2-2C71.851,77.811,71.943,77.238,72,76.627z"/>
<path style="fill-rule:evenodd;clip-rule:evenodd;fill:#EDD148;" d="M134,77.627c-4.969,10.206-19.127,0.867-30-3
	c-23.857-8.485-52.085-15.871-72-24c1.228-3.105,4.277-4.389,8-5C71.14,56.488,103.582,66.045,134,77.627z"/>
<path style="fill-rule:evenodd;clip-rule:evenodd;fill:#EDD148;" d="M66,70.627c0.157,1.177-0.172,2.839,1,3
	c0.221-0.779,0.837-1.162,2-1c-0.224,0.776-0.027,1.973-1,2c-2.787,0.88-6.085,1.248-8,3c-0.333,0-0.667,0-1,0
	c0.075-1.742-0.223-3.11-1-4C61.528,73.489,62.472,70.766,66,70.627z"/>
</svg>
