<?xml version="1.0" encoding="utf-8"?>
<!-- Generator: Adobe Illustrator 15.0.0, SVG Export Plug-In . SVG Version: 6.00 Build 0)  -->
<!DOCTYPE svg PUBLIC "-//W3C//DTD SVG 1.1//EN" "http://www.w3.org/Graphics/SVG/1.1/DTD/svg11.dtd" [
	<!ENTITY ns_flows "http://ns.adobe.com/Flows/1.0/">
	<!ENTITY ns_extend "http://ns.adobe.com/Extensibility/1.0/">
	<!ENTITY ns_ai "http://ns.adobe.com/AdobeIllustrator/10.0/">
	<!ENTITY ns_graphs "http://ns.adobe.com/Graphs/1.0/">
]>
<svg version="1.1" id="Layer_1" xmlns:x="&ns_extend;" xmlns:i="&ns_ai;" xmlns:graph="&ns_graphs;"
	 xmlns="http://www.w3.org/2000/svg" xmlns:xlink="http://www.w3.org/1999/xlink" xmlns:a="http://ns.adobe.com/AdobeSVGViewerExtensions/3.0/"
	 x="0px" y="0px" width="518.46px" height="144.421px" viewBox="0 0 518.46 144.421"
	 style="enable-background:new 0 0 518.46 144.421;" xml:space="preserve">
<g>
	
		<polygon style="fill-rule:evenodd;clip-rule:evenodd;fill:#FEDD10;stroke:#8B5E3C;stroke-width:3.3647;stroke-miterlimit:10;" points="
		463.203,73.952 485.866,45.838 467.091,8.944 28.377,98.853 2.404,106.679 9.325,133.595 459.806,80.619 	"/>
	
		<polygon style="fill-rule:evenodd;clip-rule:evenodd;fill:#C3996B;stroke:#8B5E3C;stroke-width:3.3647;stroke-miterlimit:10;" points="
		1.868,106.931 6.364,142.532 449.364,84.081 438.406,27.005 	"/>
</g>
<ellipse transform="matrix(-0.9961 0.0882 -0.0882 -0.9961 914.7625 51.8895)" style="fill-rule:evenodd;clip-rule:evenodd;fill:#594A42;" cx="456.235" cy="46.154" rx="62.333" ry="46"/>
<linearGradient id="SVGID_1_" gradientUnits="userSpaceOnUse" x1="-375.8853" y1="-230.1089" x2="-264.9277" y2="-230.1089" gradientTransform="matrix(-1 0 0 1 -580.375 0)">
	<stop  offset="0" style="stop-color:#F26522"/>
	<stop  offset="1" style="stop-color:#FFF200"/>
	<a:midPointStop  offset="0" style="stop-color:#F26522"/>
	<a:midPointStop  offset="0.5" style="stop-color:#F26522"/>
	<a:midPointStop  offset="1" style="stop-color:#FFF200"/>
</linearGradient>
<path style="fill-rule:evenodd;clip-rule:evenodd;fill:url(#SVGID_1_);" d="M-315.08-132.613
	c-3.864,30.555,23.407,55.766,52.28,55.766s45.282-25.773,52.28-55.766c30.497-130.701-65.135-274.457-54.895-247.46
	C-227.075-278.998-305.495-208.419-315.08-132.613z"/>
<linearGradient id="SVGID_2_" gradientUnits="userSpaceOnUse" x1="-332.8853" y1="-258.1089" x2="-221.9277" y2="-258.1089" gradientTransform="matrix(-1 0 0 1 -580.375 0)">
	<stop  offset="0" style="stop-color:#F26522"/>
	<stop  offset="1" style="stop-color:#FFF200"/>
	<a:midPointStop  offset="0" style="stop-color:#F26522"/>
	<a:midPointStop  offset="0.5" style="stop-color:#F26522"/>
	<a:midPointStop  offset="1" style="stop-color:#FFF200"/>
</linearGradient>
<path style="fill-rule:evenodd;clip-rule:evenodd;fill:url(#SVGID_2_);" d="M-358.08-160.613
	c-3.864,30.555,23.407,55.766,52.28,55.766s45.282-25.773,52.28-55.766c30.497-130.701-65.135-274.457-54.895-247.46
	C-270.075-306.998-348.495-236.419-358.08-160.613z"/>
<linearGradient id="SVGID_3_" gradientUnits="userSpaceOnUse" x1="-333.4414" y1="-123.981" x2="-222.4839" y2="-123.981" gradientTransform="matrix(-0.9787 0.2052 0.2052 0.9787 -570.5774 -17.7311)">
	<stop  offset="0" style="stop-color:#F26522"/>
	<stop  offset="1" style="stop-color:#FFF200"/>
	<a:midPointStop  offset="0" style="stop-color:#F26522"/>
	<a:midPointStop  offset="0.5" style="stop-color:#F26522"/>
	<a:midPointStop  offset="1" style="stop-color:#FFF200"/>
</linearGradient>
<path style="fill-rule:evenodd;clip-rule:evenodd;fill:url(#SVGID_3_);" d="M-250.025-111.996
	c10.052,29.112-11.467,59.382-39.726,65.307c-28.258,5.924-49.606-15.934-62.61-43.852c-56.667-121.662,7.434-281.981,2.951-253.458
	C-366.194-237.208-274.96-184.223-250.025-111.996z"/>
</svg>
