<?xml version="1.0" encoding="utf-8"?>
<!-- Generator: Adobe Illustrator 15.0.0, SVG Export Plug-In . SVG Version: 6.00 Build 0)  -->
<!DOCTYPE svg PUBLIC "-//W3C//DTD SVG 1.1//EN" "http://www.w3.org/Graphics/SVG/1.1/DTD/svg11.dtd" [
	<!ENTITY ns_flows "http://ns.adobe.com/Flows/1.0/">
	<!ENTITY ns_extend "http://ns.adobe.com/Extensibility/1.0/">
	<!ENTITY ns_ai "http://ns.adobe.com/AdobeIllustrator/10.0/">
	<!ENTITY ns_graphs "http://ns.adobe.com/Graphs/1.0/">
]>
<svg version="1.1" id="Layer_1" xmlns:x="&ns_extend;" xmlns:i="&ns_ai;" xmlns:graph="&ns_graphs;"
	 xmlns="http://www.w3.org/2000/svg" xmlns:xlink="http://www.w3.org/1999/xlink" xmlns:a="http://ns.adobe.com/AdobeSVGViewerExtensions/3.0/"
	 x="0px" y="0px" width="299.623px" height="214.723px" viewBox="0 0 299.623 214.723"
	 style="enable-background:new 0 0 299.623 214.723;" xml:space="preserve">
<g>
	
		<polygon style="fill-rule:evenodd;clip-rule:evenodd;fill:#FEDD10;stroke:#8B5E3C;stroke-width:2.4059;stroke-miterlimit:10;" points="
		14.736,117.265 2.841,92.738 12.327,53.669 239.806,80.176 253.289,84.216 249.874,111.756 16.534,123.362 	"/>
	
		<polygon style="fill-rule:evenodd;clip-rule:evenodd;fill:#C3996B;stroke:#8B5E3C;stroke-width:2.4059;stroke-miterlimit:10;" points="
		253.568,84.388 251.459,120.156 21.956,125.297 27.275,67.423 	"/>
</g>
<g>
	
		<polygon style="fill-rule:evenodd;clip-rule:evenodd;fill:#FEDD10;stroke:#8B5E3C;stroke-width:2.4059;stroke-miterlimit:10;" points="
		71.102,59.066 71.926,31.819 98.436,1.593 287.739,130.488 297.815,140.315 282.026,163.138 69.87,65.302 	"/>
	
		<polygon style="fill-rule:evenodd;clip-rule:evenodd;fill:#C3996B;stroke:#8B5E3C;stroke-width:2.4059;stroke-miterlimit:10;" points="
		297.982,140.597 279.541,171.317 73.779,69.529 105.309,20.708 	"/>
</g>
<g>
	
		<polygon style="fill-rule:evenodd;clip-rule:evenodd;fill:#FEDD10;stroke:#8B5E3C;stroke-width:2.4059;stroke-miterlimit:10;" points="
		180.076,29.395 205.287,39.758 224.247,75.211 36.96,207.02 24.215,212.992 8.411,190.179 174.672,26.046 	"/>
	
		<polygon style="fill-rule:evenodd;clip-rule:evenodd;fill:#C3996B;stroke:#8B5E3C;stroke-width:2.4059;stroke-miterlimit:10;" points="
		23.892,213.048 1.631,184.974 169.338,28.217 203.935,74.916 	"/>
</g>
<g>
	
		<polygon style="fill-rule:evenodd;clip-rule:evenodd;fill:#FEDD10;stroke:#8B5E3C;stroke-width:2.4059;stroke-miterlimit:10;" points="
		31.169,150.953 24.692,124.475 42.172,88.271 259.009,161.967 271.342,168.749 262.218,194.958 31.646,157.292 	"/>
	
		<polygon style="fill-rule:evenodd;clip-rule:evenodd;fill:#C3996B;stroke:#8B5E3C;stroke-width:2.4059;stroke-miterlimit:10;" points="
		271.579,168.976 262.005,203.502 36.542,160.323 53.897,104.857 	"/>
</g>
</svg>
